<svg xmlns="http://www.w3.org/2000/svg" viewBox="0 0 512 512"><g><path d="M480.782,503.3c-0.029-41.143-0.018-82.286-0.026-123.429c-0.011-57.375-0.033-114.749-0.043-172.124c0-0.786,0.081-1.572,0.125-2.358c-1.172-10.278-2.235-20.617-4.805-30.624c-2.554-9.947-5.397-19.852-9.1-29.48c-6.666-17.331-15.428-33.478-25.984-48.766c-10.539-15.264-23.063-28.667-37.126-40.576c-10.648-9.017-22.348-16.734-34.586-23.453c-6.741-3.701-13.899-6.673-21.006-9.709c-9.359-3.998-18.753-7.811-28.596-10.398c-10.406-2.736-20.848-5.212-31.589-6.508c-6.365-0.768-12.702-1.711-19.112-2.059l0,0v0c-7.269-0.029-14.537-0.057-21.806-0.086l0,0v0c-9.622-0.278-19.125,1.258-28.532,2.748c-10.385,1.645-20.619,4.354-30.754,7.318c-10.521,3.077-20.538,7.453-30.542,11.79c-8.998,3.9-17.342,9.112-25.79,14.145c-10.64,6.339-20.395,13.716-29.462,21.984c-15.157,13.819-28.157,29.521-38.805,47.086C54.83,122.678,47.66,137.2,42.839,152.706c-2.983,9.594-5.977,19.205-7.723,29.191c-1.61,9.208-2.899,18.429-3.857,27.712l0,0h0c-0.015,2.459-0.029,4.919-0.044,7.379c0.033,5.52,0.095,11.04,0.095,16.56c-0.001,88.751-0.009,177.501-0.016,266.252c0,1.803-0.011,3.605,0,5.408c0.006,0.924,0.156,1.94-1.339,1.575c-0.413,2.055,1.148,1.33,2.007,1.332c14.899,0.03,29.799,0.022,44.698,0.022c0.316-1.802,1.863-1.361,2.953-1.489c11.484-1.357,22.844-3.317,34.166-5.733c7.47-1.594,14.972-3.081,22.302-5.173c7.826-2.234,15.602-4.651,23.253-7.544c6.26-2.366,12.813-4.079,19.013-6.66c13.753-5.725,27.154-12.21,40.121-19.559c12.507-7.089,24.608-14.795,35.741-23.94c1.472-1.209,2.699-0.974,4.195,0.197c7.051,5.515,14.306,10.732,21.944,15.438c10.881,6.704,21.946,13.009,33.403,18.719c12.991,6.475,26.517,11.55,40.134,16.346c11.493,4.048,23.218,7.455,35.161,10.152c8.217,1.856,16.461,3.64,24.736,5.054c5.839,0.997,11.7,2.264,17.666,2.55c1.345,0.064,2.762-0.054,3.283,1.642c14.891,0,29.783,0.017,44.674-0.042c0.878-0.003,2.099,0.764,2.708-0.635C480.157,506.563,480.783,504.775,480.782,503.3z M270.01,369.884c-3.802,4.656-8.065,8.933-12.025,13.465c-1.237,1.416-2.071,1.642-3.411,0.113c-4.4-5.019-9.094-9.789-13.334-14.936c-7.222-8.767-14.439-17.563-20.711-27.052c-6.618-10.013-13.313-19.966-18.513-30.872c-2.759-5.785-5.514-11.595-7.914-17.504c-2.242-5.521-3.576-11.45-5.19-17.232c-1.904-6.822-1.513-13.825-3.043-20.626c-0.811-3.604-0.403-7.365,0.261-11.086c0.729-4.09,0.665-8.327,1.471-12.396c1.532-7.741,3.785-15.206,7.416-22.368c4.923-9.711,11.16-18.169,19.667-24.924c7.412-5.886,15.326-10.708,24.948-12.225c2.713-0.428,5.196-2.023,8.141-1.845c2.81,0.17,5.638,0.037,9.024,0.037c8.65-1.148,17.363,1.29,25.66,4.667c9.785,3.982,17.902,10.589,24.814,18.626c4.149,4.824,7.815,10.072,10.667,15.656c1.872,3.666,3.253,7.805,4.414,11.87c3.677,12.885,5.2,25.976,3.696,39.375c-0.891,7.935-2.596,15.64-4.814,23.318c-1.479,5.12-2.907,10.342-5.191,15.023c-2.59,5.308-5.14,10.693-7.83,15.968c-4.93,9.668-11.174,18.437-16.941,27.538C285.052,352.287,277.324,360.928,270.01,369.884z M442.872,466.027c0.002,2.499-0.55,3.154-3.102,2.478c-8.04-2.129-16.408-2.382-24.536-3.987c-5.349-1.056-10.707-2.125-15.982-3.632c-3.701-1.057-7.54-1.732-11.307-2.64c-4.157-1.002-8.121-2.374-12.127-3.789c-2.58-0.911-5.29-1.351-7.911-2.395c-6.695-2.666-13.752-4.436-20.4-7.2c-8.543-3.551-16.738-7.922-25.102-11.876c-11.949-5.649-22.435-13.592-33.8-20.124c-1.03-0.592-1.821-1.602-2.878-2.559c8.094-7.127,14.599-15.573,21.254-23.8c7.481-9.249,14.704-18.751,21.275-28.717c6.018-9.127,11.904-18.363,16.601-28.206c3.413-7.153,7.143-14.181,9.837-21.723c1.79-5.012,3.771-10.024,5.145-15.118c1.204-4.463,2.207-9.1,3.378-13.559c1.946-7.407,1.24-14.989,2.796-22.337c0.975-4.602,0.901-9.147-0.185-13.732c-0.463-1.956-0.721-4.02-0.681-6.026c0.153-7.496-2.044-14.504-3.814-21.67c-1.266-5.126-2.596-10.186-4.587-15.047c-2.31-5.64-5.186-10.984-8.307-16.254c-3.267-5.517-6.659-10.891-11-15.566c-7.514-8.094-15.039-16.099-24.882-21.689c-6.163-3.501-12.118-7.497-18.805-9.741c-7.68-2.576-15.553-4.495-23.741-5.447c-6.154-0.716-12.407-2.191-18.377-1.04c-7.24,1.396-14.661,1.113-21.836,3.316c-4.877,1.497-9.818,2.721-14.531,4.749c-10.715,4.609-20.487,10.68-29.225,18.423c-9.426,8.353-17.273,18.048-23.323,29.021c-4.995,9.06-8.978,18.555-11.794,28.676c-5.046,18.135-4.758,36.472-3.532,54.861c0.271,4.065,1.349,8.355,2.382,12.452c1.803,7.152,3.476,14.406,6.159,21.242c1.707,4.351,3.603,8.731,5.627,13.01c2.344,4.955,4.321,10.124,6.933,14.955c7.349,13.589,15.533,26.626,24.699,39.114c8.375,11.411,17.556,22.117,26.529,33.018c1.49,1.81,3.32,3.317,4.999,4.815c2.813,2.509,0.688,3.657-0.811,4.556c-8.971,5.376-17.648,11.206-26.491,16.774c-3.022,1.902-6.567,3.066-9.807,4.722c-3.894,1.991-7.862,3.84-11.835,5.671c-4.178,1.925-8.328,3.889-12.735,5.317c-4.728,1.532-9.298,3.542-13.988,5.2c-3.451,1.22-6.847,2.582-10.427,3.478c-3.294,0.825-6.53,2-9.66,3.328c-2.915,1.237-6.087,1.256-9.088,2.098c-3.773,1.059-7.658,2.203-11.622,2.831c-7.535,1.195-15.019,2.715-22.521,4.112c-4.495,0.837-9.174,0.247-13.573,2.138c-1.724,0.741-2.233-0.775-2.232-2.586c0.025-48.279-0.026-96.557-0.049-144.836c-0.014-30.57,0.059-61.139-0.041-91.708c-0.03-9.155,0.557-18.345,1.926-27.278c1.652-10.78,4.247-21.472,7.706-31.975c4.43-13.447,11.255-25.643,17.921-37.91c3.518-6.474,8.601-12.122,13.157-18.003c10.39-13.408,22.794-24.825,36.356-34.861c8.328-6.163,17.227-11.589,26.603-16.21c3.815-1.88,7.613-4.12,11.509-5.569c4.486-1.669,8.761-3.887,13.423-5.247c4.973-1.451,9.948-2.956,14.903-4.487c6.187-1.912,12.571-2.89,18.845-3.649c9.995-1.209,20.024-3.33,30.207-2.114c7.463,0.891,14.928,1.814,22.352,2.981c5.986,0.941,12.019,1.894,17.819,3.575c3.235,0.938,6.514,2.167,9.739,3.135c4.471,1.342,8.597,3.392,12.931,4.976c4.239,1.549,8.335,3.443,12.251,5.713c2.948,1.709,6.066,3.121,9.081,4.689c4.135,2.152,7.897,4.828,11.78,7.305c9.264,5.909,17.713,12.916,25.711,20.442c8.987,8.456,16.899,17.826,24.348,27.686c5.741,7.6,10.218,15.886,14.682,24.158c4.943,9.159,8.689,18.863,11.577,28.976c2.245,7.86,4.738,15.737,5.503,23.76c0.7,7.331,2.791,14.392,2.774,21.886C442.754,302.914,442.82,384.47,442.872,466.027z"/></g></svg>
